{"glyphs":{"J":{"ha":833,"x_min":0,"x_max":0,"o":"m 200 969 l 667 969 l 667 251 b 646 140 667 211 660 174 b 588 56 632 107 613 79 b 496 3 561 32 531 15 b 381 -17 461 -10 422 -17 l 381 -17 b 197 42 307 -17 246 3 b 103 203 149 79 118 133 l 103 203 l 214 226 b 233 172 218 207 225 189 b 265 128 240 154 251 140 b 314 97 278 115 294 104 b 383 86 333 90 357 86 l 383 86 b 507 132 436 86 478 101 b 550 272 536 161 550 208 l 550 272 l 550 868 l 200 868 l 200 969 z "},"Y":{"ha":833,"x_min":0,"x_max":0,"o":"m 475 0 l 358 0 l 358 381 l 24 969 l 157 969 l 296 717 l 414 496 l 419 496 l 540 717 l 679 969 l 810 969 l 475 381 l 475 0 z "},"N":{"ha":833,"x_min":0,"x_max":0,"o":"m 557 0 l 226 821 l 217 821 l 217 0 l 111 0 l 111 969 l 276 969 l 607 157 l 617 157 l 617 969 l 722 969 l 722 0 l 557 0 z "},"X":{"ha":833,"x_min":0,"x_max":0,"o":"m 489 496 l 799 0 l 667 0 l 551 193 l 424 404 l 418 404 l 286 193 l 164 0 l 36 0 l 353 494 l 54 969 l 186 969 l 299 782 l 419 586 l 425 586 l 544 782 l 661 969 l 789 969 l 489 496 z "},"I":{"ha":833,"x_min":0,"x_max":0,"o":"m 717 0 l 117 0 l 117 93 l 358 93 l 358 876 l 117 876 l 117 969 l 717 969 l 717 876 l 475 876 l 475 93 l 717 93 l 717 0 z "},"O":{"ha":833,"x_min":0,"x_max":0,"o":"m 417 -17 l 417 -17 b 264 18 357 -17 307 -6 b 158 115 221 40 186 72 b 97 272 131 158 110 210 b 78 485 85 335 78 406 l 78 485 b 97 697 78 564 85 635 b 158 854 110 760 131 811 b 264 953 186 897 221 929 b 417 986 307 975 357 986 l 417 986 b 569 953 476 986 526 975 b 675 854 613 929 647 897 b 736 697 703 811 724 760 b 756 485 749 635 756 564 l 756 485 b 736 272 756 406 749 335 b 675 115 724 210 703 158 b 569 18 647 72 613 40 b 417 -17 526 -6 476 -17 z m 417 85 l 417 85 b 515 108 456 85 489 93 b 582 172 542 124 564 144 b 621 274 600 200 613 233 b 632 406 628 313 632 357 l 632 406 l 632 564 b 621 696 632 613 628 656 b 582 797 613 736 600 769 b 515 863 564 825 542 847 b 417 885 489 878 456 885 l 417 885 b 318 863 378 885 344 878 b 251 797 292 847 269 825 b 214 696 233 769 221 736 b 201 564 206 656 201 613 l 201 564 l 201 406 b 214 274 201 357 206 313 b 251 172 221 233 233 200 b 318 108 269 144 292 124 b 417 85 344 93 378 85 z "},"S":{"ha":833,"x_min":0,"x_max":0,"o":"m 414 -17 l 414 -17 b 200 32 326 -17 256 0 b 63 154 144 64 99 104 l 63 154 l 147 224 b 268 118 185 176 225 142 b 418 83 310 94 360 83 l 418 83 b 579 132 489 83 542 100 b 635 268 617 164 635 210 l 635 268 b 594 379 635 315 621 353 b 454 435 568 406 521 424 l 454 435 l 346 453 b 228 490 299 461 260 474 b 150 551 196 507 169 528 b 108 629 131 575 117 600 b 96 717 100 657 96 686 l 96 717 b 183 918 96 806 125 872 b 419 986 242 964 321 986 l 419 986 b 617 947 497 986 563 974 b 744 838 669 921 713 885 l 744 838 l 663 767 b 565 853 636 801 603 831 b 418 886 528 875 478 886 l 418 886 b 267 844 353 886 301 872 b 214 719 232 817 214 775 l 214 719 b 254 614 214 676 228 640 b 396 554 281 586 328 567 l 396 554 l 500 536 b 619 499 547 528 588 515 b 699 439 651 482 678 463 b 740 361 718 415 732 390 b 753 271 749 332 753 303 l 753 271 b 665 60 753 181 724 111 b 414 -17 606 8 522 -17 z "},"C":{"ha":833,"x_min":0,"x_max":0,"o":"m 449 -17 l 449 -17 b 185 113 331 -17 242 26 b 97 485 126 199 97 322 l 97 485 b 185 857 97 647 126 771 b 449 986 242 943 331 986 l 449 986 b 564 968 493 986 532 981 b 647 919 596 956 624 940 b 706 851 671 899 690 876 b 747 774 721 825 735 800 l 747 774 l 647 728 b 618 789 639 749 629 769 b 579 839 607 807 593 824 b 525 872 564 853 544 864 b 449 885 504 881 478 885 l 449 885 b 278 797 372 885 315 856 b 221 564 240 739 221 661 l 221 564 l 221 406 b 278 172 221 308 240 231 b 449 85 315 114 372 85 l 449 85 b 525 97 478 85 504 89 b 579 132 546 106 563 117 b 618 182 594 146 607 163 b 647 242 629 200 639 221 l 647 242 l 747 196 b 706 118 735 169 721 143 b 647 50 690 93 671 71 b 564 1 624 29 596 14 b 449 -17 532 -11 493 -17 z "},"R":{"ha":833,"x_min":0,"x_max":0,"o":"m 242 414 l 242 0 l 125 0 l 125 969 l 478 969 b 683 896 568 969 636 944 b 754 690 731 847 754 778 l 754 690 b 693 501 754 611 733 549 b 515 419 653 454 593 426 l 515 419 l 763 0 l 632 0 l 396 414 l 242 414 z m 242 513 l 475 513 b 590 550 524 513 563 525 b 631 654 617 574 631 608 l 631 654 l 631 726 b 590 832 631 772 617 807 b 475 868 563 856 524 868 l 475 868 l 242 868 l 242 513 z "},"L":{"ha":833,"x_min":0,"x_max":0,"o":"m 743 0 l 167 0 l 167 969 l 283 969 l 283 101 l 743 101 l 743 0 z "}," ":{"ha":833,"x_min":0,"x_max":0,"o":""},"D":{"ha":833,"x_min":0,"x_max":0,"o":"m 132 0 l 132 969 l 403 969 b 668 847 521 969 610 929 b 756 485 726 765 756 644 l 756 485 b 668 122 756 325 726 204 b 403 0 610 40 521 0 l 403 0 l 132 0 z m 249 101 l 397 101 b 574 182 475 101 533 128 b 632 410 613 236 632 311 l 632 410 l 632 560 b 574 788 632 658 613 733 b 397 868 533 842 475 868 l 397 868 l 249 868 l 249 101 z "},"W":{"ha":833,"x_min":0,"x_max":0,"o":"m 293 0 l 125 0 l 49 969 l 153 969 l 193 414 l 214 121 l 225 121 l 353 717 l 483 717 l 611 121 l 622 121 l 643 414 l 683 969 l 785 969 l 708 0 l 540 0 l 422 579 l 411 579 l 293 0 z "},"E":{"ha":833,"x_min":0,"x_max":0,"o":"m 722 0 l 125 0 l 125 969 l 722 969 l 722 868 l 242 868 l 242 542 l 706 542 l 706 440 l 242 440 l 242 101 l 722 101 l 722 0 z "},"A":{"ha":833,"x_min":0,"x_max":0,"o":"m 792 0 l 668 0 l 586 276 l 246 276 l 164 0 l 43 0 l 340 969 l 494 969 l 792 0 z m 558 378 l 422 846 l 410 846 l 274 378 l 558 378 z "},"G":{"ha":833,"x_min":0,"x_max":0,"o":"m 617 0 l 617 129 l 610 129 b 581 75 601 111 592 93 b 539 29 569 57 556 42 b 476 -4 521 15 500 4 b 390 -17 453 -12 424 -17 l 390 -17 b 156 111 285 -17 207 26 b 78 478 104 196 78 318 l 78 478 b 163 857 78 644 106 771 b 424 986 219 943 306 986 l 424 986 b 542 968 469 986 508 981 b 628 919 575 956 604 940 b 686 851 651 899 671 876 b 725 774 701 825 715 800 l 725 774 l 625 728 b 597 789 617 749 607 769 b 558 839 586 807 572 824 b 503 872 543 853 524 864 b 428 885 482 881 457 885 l 428 885 b 257 797 350 885 293 856 b 201 564 219 739 201 661 l 201 564 l 201 414 b 213 281 201 365 206 319 b 250 175 219 240 232 204 b 317 107 267 146 289 122 b 417 82 343 90 376 82 l 417 82 b 564 139 479 82 529 101 b 617 286 599 176 617 226 l 617 286 l 617 386 l 413 386 l 413 479 l 725 479 l 725 0 l 617 0 z "},"T":{"ha":833,"x_min":0,"x_max":0,"o":"m 799 868 l 475 868 l 475 0 l 358 0 l 358 868 l 35 868 l 35 969 l 799 969 l 799 868 z "},"H":{"ha":833,"x_min":0,"x_max":0,"o":"m 606 0 l 606 440 l 228 440 l 228 0 l 111 0 l 111 969 l 228 969 l 228 542 l 606 542 l 606 969 l 722 969 l 722 0 l 606 0 z "},"U":{"ha":833,"x_min":0,"x_max":0,"o":"m 111 969 l 228 969 l 228 388 b 232 261 228 340 229 299 b 254 167 235 224 242 193 b 311 106 267 140 285 119 b 417 85 336 92 371 85 l 417 85 b 524 106 463 85 497 92 b 579 167 549 119 567 140 b 601 261 592 193 599 224 b 606 388 604 299 606 340 l 606 388 l 606 969 l 722 969 l 722 415 b 713 226 722 343 719 281 b 669 92 706 172 690 128 b 576 11 647 56 617 29 b 417 -17 536 -7 482 -17 l 417 -17 b 258 11 351 -17 299 -7 b 165 92 218 29 186 56 b 122 226 143 128 129 172 b 111 415 115 281 111 343 l 111 415 l 111 969 z "},"B":{"ha":833,"x_min":0,"x_max":0,"o":"m 122 0 l 122 969 l 451 969 b 647 901 535 969 600 947 b 718 719 694 856 718 796 l 718 719 b 676 582 718 661 704 615 b 567 511 647 549 611 525 l 567 511 l 567 507 b 701 435 621 494 667 469 b 754 279 736 399 754 347 l 754 279 b 735 169 754 240 747 204 b 681 81 722 135 704 106 b 597 22 657 56 629 36 b 493 0 565 7 531 0 l 493 0 l 122 0 z m 239 101 l 458 101 b 585 138 513 101 554 114 b 631 249 615 161 631 199 l 631 249 l 631 306 b 585 417 631 354 615 392 b 458 453 554 440 513 453 l 458 453 l 239 453 l 239 101 z m 239 549 l 439 549 b 554 582 488 549 526 560 b 596 681 582 603 596 636 l 596 681 l 596 735 b 554 835 596 779 582 813 b 439 868 526 857 488 868 l 439 868 l 239 868 l 239 549 z "},"P":{"ha":833,"x_min":0,"x_max":0,"o":"m 242 0 l 125 0 l 125 969 l 478 969 b 683 896 568 969 636 944 b 754 690 731 847 754 778 l 754 690 b 683 485 754 603 731 533 b 478 411 636 436 568 411 l 478 411 l 242 411 l 242 0 z m 242 868 l 242 513 l 475 513 b 590 550 524 513 563 525 b 631 654 617 574 631 608 l 631 654 l 631 726 b 590 832 631 772 617 807 b 475 868 563 856 524 868 l 475 868 l 242 868 z "}}}
